<?xml version="1.0" encoding="UTF-8"?>
<svg width="16px" height="16px" viewBox="0 0 16 16" version="1.1" xmlns="http://www.w3.org/2000/svg" xmlns:xlink="http://www.w3.org/1999/xlink">
    <!-- Generator: Sketch 52.6 (67491) - http://www.bohemiancoding.com/sketch -->
    <title>icon-操作记录</title>
    <desc>Created with Sketch.</desc>
    <g id="icon-操作记录" stroke="none" stroke-width="1" fill="none" fill-rule="evenodd">
        <path d="M1,7 L1,2 C1,1.44771525 1.44771525,1 2,1 L7,1 L7,7 L1,7 Z M1,9 L7,9 L7,15 L2,15 C1.44771525,15 1,14.5522847 1,14 L1,9 Z M15,7 L9,7 L9,1 L10.5857864,1 C10.8510029,1 11.1053568,1.10535684 11.2928932,1.29289322 L14.7071068,4.70710678 C14.8946432,4.89464316 15,5.14899707 15,5.41421356 L15,7 Z M15,9 L15,14 C15,14.5522847 14.5522847,15 14,15 L9,15 L9,9 L15,9 Z" id="Combined-Shape" fill="#BBBBBB"></path>
    </g>
</svg>