<?xml version="1.0" encoding="UTF-8"?>
<svg width="14px" height="14px" viewBox="0 0 14 14" version="1.1" xmlns="http://www.w3.org/2000/svg" xmlns:xlink="http://www.w3.org/1999/xlink">
    <!-- Generator: Sketch 52.6 (67491) - http://www.bohemiancoding.com/sketch -->
    <title>icon-导入账户</title>
    <desc>Created with Sketch.</desc>
    <g id="icon-导入账户" stroke="none" stroke-width="1" fill="none" fill-rule="evenodd">
        <path d="M0,8.54142136 L5.58578644,8.54142136 L4.57573593,9.55147186 C4.41952621,9.70768158 4.41952621,9.96094757 4.57573593,10.1171573 L5.42426407,10.9656854 C5.58047379,11.1218951 5.83373978,11.1218951 5.98994949,10.9656854 L9.13137085,7.82426407 C9.28758057,7.66805435 9.28758057,7.41478836 9.13137085,7.25857864 L5.98994949,4.11715729 C5.83373978,3.96094757 5.58047379,3.96094757 5.42426407,4.11715729 L4.57573593,4.96568542 C4.41952621,5.12189514 4.41952621,5.37516113 4.57573593,5.53137085 L5.58578644,6.54142136 L1.11022302e-16,6.54142136 L0,2 L0,0.4 C-2.705415e-17,0.1790861 0.1790861,-1.25952229e-16 0.4,-1.66533454e-16 L4.83431458,1.88737914e-15 C4.94040117,2.056339e-15 5.04214274,0.0421427361 5.11715729,0.117157288 L7,2 L13.6,2 C13.8209139,2 14,2.1790861 14,2.4 L14,13.6 C14,13.8209139 13.8209139,14 13.6,14 L0.4,14 C0.1790861,14 1.34117585e-15,13.8209139 3.33066907e-16,13.6 L1.87821636e-16,8.54142136 Z" id="Combined-Shape" fill="#F6C94A"></path>
    </g>
</svg>