<?xml version="1.0" encoding="UTF-8"?>
<svg width="14px" height="14px" viewBox="0 0 14 14" version="1.1" xmlns="http://www.w3.org/2000/svg" xmlns:xlink="http://www.w3.org/1999/xlink">
    <!-- Generator: Sketch 52.6 (67491) - http://www.bohemiancoding.com/sketch -->
    <title>icon-充提记录</title>
    <desc>Created with Sketch.</desc>
    <g id="icon-充提记录" stroke="none" stroke-width="1" fill="none" fill-rule="evenodd">
        <path d="M14,8 L8,8 L8,6 L8,4 L0,4 L0,1 C-6.76353751e-17,0.44771525 0.44771525,1.01453063e-16 1,0 L9.58578644,0 C9.85100293,-4.87194788e-17 10.1053568,0.10535684 10.2928932,0.292893219 L13.7071068,3.70710678 C13.8946432,3.89464316 14,4.14899707 14,4.41421356 L14,8 Z M14,10 L14,13 C14,13.5522847 13.5522847,14 13,14 L1,14 C0.44771525,14 6.76353751e-17,13.5522847 0,13 L0,6 L6,6 L6,10 L8,10 L14,10 Z" id="Combined-Shape" fill="#F6C94A"></path>
    </g>
</svg>