<?xml version="1.0" encoding="UTF-8"?>
<svg width="14px" height="14px" viewBox="0 0 14 14" version="1.1" xmlns="http://www.w3.org/2000/svg" xmlns:xlink="http://www.w3.org/1999/xlink">
    <!-- Generator: Sketch 52.6 (67491) - http://www.bohemiancoding.com/sketch -->
    <title>icon-关闭</title>
    <desc>Created with Sketch.</desc>
    <g id="icon-关闭" stroke="none" stroke-width="1" fill="none" fill-rule="evenodd">
        <path d="M7,4.9 L11.6171573,0.282842712 C11.773367,0.126632996 12.026633,0.126632996 12.1828427,0.282842712 L13.7171573,1.81715729 C13.873367,1.973367 13.873367,2.226633 13.7171573,2.38284271 L9.1,7 L13.7171573,11.6171573 C13.873367,11.773367 13.873367,12.026633 13.7171573,12.1828427 L12.1828427,13.7171573 C12.026633,13.873367 11.773367,13.873367 11.6171573,13.7171573 L7,9.1 L2.38284271,13.7171573 C2.226633,13.873367 1.973367,13.873367 1.81715729,13.7171573 L0.282842712,12.1828427 C0.126632996,12.026633 0.126632996,11.773367 0.282842712,11.6171573 L4.9,7 L0.282842712,2.38284271 C0.126632996,2.226633 0.126632996,1.973367 0.282842712,1.81715729 L1.81715729,0.282842712 C1.973367,0.126632996 2.226633,0.126632996 2.38284271,0.282842712 L7,4.9 Z" id="Combined-Shape" fill="#7B7F82"></path>
    </g>
</svg>