<?xml version="1.0" encoding="UTF-8"?>
<svg width="32px" height="29px" viewBox="0 0 32 29" version="1.1" xmlns="http://www.w3.org/2000/svg" xmlns:xlink="http://www.w3.org/1999/xlink">
    <!-- Generator: Sketch 52.6 (67491) - http://www.bohemiancoding.com/sketch -->
    <title>icon-警告</title>
    <desc>Created with Sketch.</desc>
    <g id="icon-警告" stroke="none" stroke-width="1" fill="none" fill-rule="evenodd">
        <path d="M15.4797023,1.2981295 C15.5326182,1.20598973 15.6090531,1.12955458 15.7011927,1.07663842 C15.9885466,0.911609926 16.3552749,1.01077422 16.5203034,1.29812807 L31.9134115,28.1011895 C31.9656319,28.1921176 31.9931113,28.2951434 31.9931113,28.4 C31.9931113,28.7313708 31.7244821,29 31.3931113,29 L0.606993028,29 C0.502137011,29 0.399111749,28.9725209 0.308183933,28.920301 C0.0208296282,28.7552733 -0.0783356727,28.3885452 0.0866920338,28.1011909 L15.4797023,1.2981295 Z M14.0147835,9.99683713 L14.0147835,18.8257143 L18.0106948,18.8257143 L18.0106948,9.99683713 L14.0147835,9.99683713 Z M14.0147835,21.9409013 L14.0147835,24.9968371 L18.0106948,24.9968371 L18.0106948,21.9409013 L14.0147835,21.9409013 Z" id="Combined-Shape" fill="#EA754B"></path>
    </g>
</svg>