<?xml version="1.0" encoding="UTF-8"?>
<svg width="16px" height="16px" viewBox="0 0 16 16" version="1.1" xmlns="http://www.w3.org/2000/svg" xmlns:xlink="http://www.w3.org/1999/xlink">
    <!-- Generator: Sketch 52.6 (67491) - http://www.bohemiancoding.com/sketch -->
    <title>icon-账户</title>
    <desc>Created with Sketch.</desc>
    <g id="icon-账户" stroke="none" stroke-width="1" fill="none" fill-rule="evenodd">
        <path d="M8,0 C3.584,0 0,3.584 0,8 C0,12.416 3.584,16 8,16 C12.416,16 16,12.416 16,8 C16,3.584 12.416,0 8,0 Z M8,2.4 C9.328,2.4 10.4,3.472 10.4,4.8 C10.4,6.128 9.328,7.2 8,7.2 C6.672,7.2 5.6,6.128 5.6,4.8 C5.6,3.472 6.672,2.4 8,2.4 Z M8,13.76 C6,13.76 4.232,12.736 3.2,11.184 C3.224,9.592 6.4,8.72 8,8.72 C9.592,8.72 12.776,9.592 12.8,11.184 C11.768,12.736 10,13.76 8,13.76 Z" id="Shape" fill="#BBBBBB" fill-rule="nonzero"></path>
    </g>
</svg>