<?xml version="1.0" encoding="UTF-8"?>
<svg width="14px" height="14px" viewBox="0 0 14 14" version="1.1" xmlns="http://www.w3.org/2000/svg" xmlns:xlink="http://www.w3.org/1999/xlink">
    <!-- Generator: Sketch 52.6 (67491) - http://www.bohemiancoding.com/sketch -->
    <title>icon-修改配置</title>
    <desc>Created with Sketch.</desc>
    <g id="icon-修改配置" stroke="none" stroke-width="1" fill="none" fill-rule="evenodd">
        <path d="M8,11 L8,13.6 C8,13.8209139 7.8209139,14 7.6,14 L6.4,14 C6.1790861,14 6,13.8209139 6,13.6 L6,11 L5.4,11 C5.1790861,11 5,10.8209139 5,10.6 L5,8.4 C5,8.1790861 5.1790861,8 5.4,8 L8.6,8 C8.8209139,8 9,8.1790861 9,8.4 L9,10.6 C9,10.8209139 8.8209139,11 8.6,11 L8,11 Z M13,7 L13,13.6 C13,13.8209139 12.8209139,14 12.6,14 L11.4,14 C11.1790861,14 11,13.8209139 11,13.6 L11,7 L10.4,7 C10.1790861,7 10,6.8209139 10,6.6 L10,4.4 C10,4.1790861 10.1790861,4 10.4,4 L13.6,4 C13.8209139,4 14,4.1790861 14,4.4 L14,6.6 C14,6.8209139 13.8209139,7 13.6,7 L13,7 Z M3,9 L3,13.6 C3,13.8209139 2.8209139,14 2.6,14 L1.4,14 C1.1790861,14 1,13.8209139 1,13.6 L1,9 L0.4,9 C0.1790861,9 -8.39681524e-17,8.8209139 -1.11022302e-16,8.6 L5.55111512e-17,6.4 C2.84570012e-17,6.1790861 0.1790861,6 0.4,6 L3.6,6 C3.8209139,6 4,6.1790861 4,6.4 L4,8.6 C4,8.8209139 3.8209139,9 3.6,9 L3,9 Z M1.4,0 L2.6,0 C2.8209139,-4.05812251e-17 3,0.1790861 3,0.4 L3,4.6 C3,4.8209139 2.8209139,5 2.6,5 L1.4,5 C1.1790861,5 1,4.8209139 1,4.6 L1,0.4 C1,0.1790861 1.1790861,-7.04410774e-17 1.4,-1.11022302e-16 Z M11.4,0 L12.6,5.55111512e-17 C12.8209139,1.49299262e-17 13,0.1790861 13,0.4 L13,2.6 C13,2.8209139 12.8209139,3 12.6,3 L11.4,3 C11.1790861,3 11,2.8209139 11,2.6 L11,0.4 C11,0.1790861 11.1790861,-7.04410774e-17 11.4,-1.11022302e-16 Z M6.4,0 L7.6,0 C7.8209139,-4.05812251e-17 8,0.1790861 8,0.4 L8,6.6 C8,6.8209139 7.8209139,7 7.6,7 L6.4,7 C6.1790861,7 6,6.8209139 6,6.6 L6,0.4 C6,0.1790861 6.1790861,3.73648132e-16 6.4,3.33066907e-16 Z" id="Combined-Shape" fill="#F6C94A"></path>
    </g>
</svg>