<?xml version="1.0" encoding="UTF-8"?>
<svg width="14px" height="14px" viewBox="0 0 14 14" version="1.1" xmlns="http://www.w3.org/2000/svg" xmlns:xlink="http://www.w3.org/1999/xlink">
    <!-- Generator: Sketch 52.6 (67491) - http://www.bohemiancoding.com/sketch -->
    <title>icon-添加</title>
    <desc>Created with Sketch.</desc>
    <g id="icon-添加" stroke="none" stroke-width="1" fill="none" fill-rule="evenodd">
        <path d="M9,5 L13.6,5 C13.8209139,5 14,5.1790861 14,5.4 L14,8.6 C14,8.8209139 13.8209139,9 13.6,9 L9,9 L9,13.6 C9,13.8209139 8.8209139,14 8.6,14 L5.4,14 C5.1790861,14 5,13.8209139 5,13.6 L5,9 L0.4,9 C0.1790861,9 3.60121057e-16,8.8209139 3.33066907e-16,8.6 L0,5.4 C-2.705415e-17,5.1790861 0.1790861,5 0.4,5 L5,5 L5,0.4 C5,0.1790861 5.1790861,4.71619876e-16 5.4,4.31038651e-16 L8.6,-9.79717439e-17 C8.8209139,-1.38552969e-16 9,0.1790861 9,0.4 L9,5 Z" id="Combined-Shape" fill="#F6C94A"></path>
    </g>
</svg>