<?xml version="1.0" encoding="UTF-8"?>
<svg width="18px" height="4px" viewBox="0 0 18 4" version="1.1" xmlns="http://www.w3.org/2000/svg" xmlns:xlink="http://www.w3.org/1999/xlink">
    <!-- Generator: Sketch 52.6 (67491) - http://www.bohemiancoding.com/sketch -->
    <title>icon-更多操作</title>
    <desc>Created with Sketch.</desc>
    <g id="icon-更多操作" stroke="none" stroke-width="1" fill="none" fill-rule="evenodd">
        <path d="M2,4 C0.8954305,4 0,3.1045695 0,2 C0,0.8954305 0.8954305,0 2,0 C3.1045695,0 4,0.8954305 4,2 C4,3.1045695 3.1045695,4 2,4 Z M9,4 C7.8954305,4 7,3.1045695 7,2 C7,0.8954305 7.8954305,0 9,0 C10.1045695,0 11,0.8954305 11,2 C11,3.1045695 10.1045695,4 9,4 Z M16,4 C14.8954305,4 14,3.1045695 14,2 C14,0.8954305 14.8954305,0 16,0 C17.1045695,0 18,0.8954305 18,2 C18,3.1045695 17.1045695,4 16,4 Z" id="Combined-Shape" fill="#7B7F82"></path>
    </g>
</svg>