<?xml version="1.0" encoding="UTF-8"?>
<svg width="18px" height="10px" viewBox="0 0 18 10" version="1.1" xmlns="http://www.w3.org/2000/svg" xmlns:xlink="http://www.w3.org/1999/xlink">
    <!-- Generator: Sketch 52.6 (67491) - http://www.bohemiancoding.com/sketch -->
    <title>icon-不可见</title>
    <desc>Created with Sketch.</desc>
    <g id="icon-不可见" stroke="none" stroke-width="1" fill="none" fill-rule="evenodd">
        <path d="M17.4892791,-2.22161178e-12 C17.8200438,0.470525645 18,0.834206919 18,1 C18,1.31210343 17.3622784,2.3254751 16.2812821,3.432754 L17.7884776,4.93994949 C17.8204921,4.97196396 17.8384776,5.01538488 17.8384776,5.06066017 C17.8384776,5.10593546 17.8204921,5.14935639 17.7884776,5.18137085 L17.1813708,5.78847763 C17.1493564,5.82049209 17.1059355,5.83847763 17.0606602,5.83847763 C17.0153849,5.83847763 16.971964,5.82049209 16.9399495,5.78847763 L15.4077886,4.25631672 C14.6475266,4.91605682 13.7492278,5.55652907 12.7529803,6.0525165 L13.5339435,7.61444283 C13.5643151,7.675186 13.5693126,7.74550636 13.5478367,7.80993422 C13.5263607,7.87436208 13.4801705,7.92761986 13.4194273,7.95799145 L12.7147368,8.31033671 C12.6539936,8.3407083 12.5836732,8.34570581 12.5192454,8.32422986 C12.4548175,8.3027539 12.4015597,8.25656368 12.3711882,8.19582051 L11.5518491,6.55714233 C10.9578318,6.7605324 10.3382379,6.90399881 9.7,6.96588727 L9.7,9 C9.7,9.11045695 9.61045695,9.2 9.5,9.2 L8.5,9.2 C8.38954305,9.2 8.3,9.11045695 8.3,9 L8.3,6.9662612 C7.66106278,6.90497729 7.04081048,6.76279529 6.44619855,6.56104708 L5.62881184,8.19582051 C5.59844025,8.25656368 5.54518248,8.3027539 5.48075462,8.32422986 C5.41632675,8.34570581 5.3460064,8.3407083 5.28526323,8.31033671 L4.58057269,7.95799145 C4.51982952,7.92761986 4.4736393,7.87436208 4.45216335,7.80993422 C4.43068739,7.74550636 4.43568491,7.675186 4.46605649,7.61444283 L5.24330132,6.05995318 C4.24336892,5.56606401 3.34220964,4.92732337 2.58038803,4.26814011 L1.06005051,5.78847763 C1.02803604,5.82049209 0.984615115,5.83847763 0.939339828,5.83847763 C0.894064541,5.83847763 0.850643612,5.82049209 0.81862915,5.78847763 L0.211522369,5.18137085 C0.179507907,5.14935639 0.161522369,5.10593546 0.161522369,5.06066017 C0.161522369,5.01538488 0.179507907,4.97196396 0.211522369,4.93994949 L1.70625521,3.44521665 C0.63282185,2.34556157 2.55637719e-17,1.33399046 0,1 C0,0.824782054 0.174168858,0.463076479 0.494753551,-2.55512278e-12 C1.71615237,1.76427969 5.06283763,5 9,5 C12.9201335,5 16.2548867,1.75597112 17.4892791,-3.57380792e-13 Z" id="Combined-Shape" fill="#7B7F82"></path>
    </g>
</svg>