<?xml version="1.0" encoding="UTF-8"?>
<svg width="14px" height="14px" viewBox="0 0 14 14" version="1.1" xmlns="http://www.w3.org/2000/svg" xmlns:xlink="http://www.w3.org/1999/xlink">
    <!-- Generator: Sketch 52.6 (67491) - http://www.bohemiancoding.com/sketch -->
    <title>icon-节点部署文档</title>
    <desc>Created with Sketch.</desc>
    <g id="icon-节点部署文档" stroke="none" stroke-width="1" fill="none" fill-rule="evenodd">
        <path d="M0.4,0 L9.83431458,-1.44328993e-15 C9.94040117,-1.46277772e-15 10.0421427,0.0421427361 10.1171573,0.117157288 L13.8828427,3.88284271 C13.9578573,3.95785726 14,4.05959883 14,4.16568542 L14,13.6 C14,13.8209139 13.8209139,14 13.6,14 L0.4,14 C0.1790861,14 3.04609906e-16,13.8209139 2.77555756e-16,13.6 L0,0.4 C-2.705415e-17,0.1790861 0.1790861,3.73648132e-16 0.4,3.33066907e-16 Z M2,2 L2,4 L7,4 L7,2 L2,2 Z M2,10 L2,12 L12,12 L12,10 L2,10 Z M2,6 L2,8 L12,8 L12,6 L2,6 Z" id="Combined-Shape" fill="#F6C94A"></path>
    </g>
</svg>