<?xml version="1.0" encoding="UTF-8"?>
<svg width="16px" height="16px" viewBox="0 0 16 16" version="1.1" xmlns="http://www.w3.org/2000/svg" xmlns:xlink="http://www.w3.org/1999/xlink">
    <!-- Generator: Sketch 52.6 (67491) - http://www.bohemiancoding.com/sketch -->
    <title>icon-设置</title>
    <desc>Created with Sketch.</desc>
    <g id="钱包页面" stroke="none" stroke-width="1" fill="none" fill-rule="evenodd">
        <g id="04-00设置" transform="translate(-1240.000000, -18.000000)" fill="#EAB83D">
            <path d="M1249.3063,20.4503864 C1249.91412,20.5929077 1250.48448,20.8327073 1251.00006,21.1524647 L1252.67102,19.8528293 C1252.83025,19.7289795 1253.05679,19.7430833 1253.19944,19.8857275 L1254.11427,20.800564 C1254.25692,20.9432082 1254.27102,21.1697475 1254.14717,21.328983 L1252.84754,22.9999428 C1253.16729,23.5155158 1253.40709,24.0858757 1253.54961,24.6937017 L1255.64961,24.9562017 C1255.84979,24.9812232 1256,25.1513836 1256,25.3531129 L1256,26.6468871 C1256,26.8486164 1255.84979,27.0187768 1255.64961,27.0437983 L1253.54961,27.3062983 C1253.40709,27.9141243 1253.16729,28.4844842 1252.84754,29.0000572 L1254.14717,30.671017 C1254.27102,30.8302525 1254.25692,31.0567918 1254.11427,31.199436 L1253.19944,32.1142725 C1253.05679,32.2569167 1252.83025,32.2710205 1252.67102,32.1471707 L1251.00006,30.8475353 C1250.48448,31.1672927 1249.91412,31.4070923 1249.3063,31.5496136 L1249.0438,33.6496139 C1249.01878,33.8497854 1248.84862,34 1248.64689,34 L1247.35311,34 C1247.15138,34 1246.98122,33.8497854 1246.9562,33.6496139 L1246.6937,31.5496136 C1246.08588,31.4070923 1245.51552,31.1672927 1244.99994,30.8475353 L1243.32898,32.1471707 C1243.16975,32.2710205 1242.94321,32.2569167 1242.80056,32.1142725 L1241.88573,31.199436 C1241.74308,31.0567918 1241.72898,30.8302525 1241.85283,30.671017 L1243.15246,29.0000572 C1242.83271,28.4844842 1242.59291,27.9141243 1242.45039,27.3062983 L1240.35039,27.0437983 C1240.15021,27.0187768 1240,26.8486164 1240,26.6468871 L1240,25.3531129 C1240,25.1513836 1240.15021,24.9812232 1240.35039,24.9562017 L1242.45039,24.6937017 C1242.59291,24.0858757 1242.83271,23.5155158 1243.15246,22.9999428 L1241.85283,21.328983 C1241.72898,21.1697475 1241.74308,20.9432082 1241.88573,20.800564 L1242.80056,19.8857275 C1242.94321,19.7430833 1243.16975,19.7289795 1243.32898,19.8528293 L1244.99994,21.1524647 C1245.51552,20.8327073 1246.08588,20.5929077 1246.6937,20.4503864 L1246.9562,18.3503861 C1246.98122,18.1502146 1247.15138,18 1247.35311,18 L1248.64689,18 C1248.84862,18 1249.01878,18.1502146 1249.0438,18.3503861 L1249.3063,20.4503864 Z M1248,29 C1249.65685,29 1251,27.6568542 1251,26 C1251,24.3431458 1249.65685,23 1248,23 C1246.34315,23 1245,24.3431458 1245,26 C1245,27.6568542 1246.34315,29 1248,29 Z" id="icon-设置"></path>
        </g>
    </g>
</svg>