<?xml version="1.0" encoding="UTF-8"?>
<svg width="18px" height="12px" viewBox="0 0 18 12" version="1.1" xmlns="http://www.w3.org/2000/svg" xmlns:xlink="http://www.w3.org/1999/xlink">
    <!-- Generator: Sketch 52.6 (67491) - http://www.bohemiancoding.com/sketch -->
    <title>icon-可见</title>
    <desc>Created with Sketch.</desc>
    <g id="icon-可见" stroke="none" stroke-width="1" fill="none" fill-rule="evenodd">
        <path d="M9.88340857,3.13218278 C9.3625147,3.36736165 9,3.8913459 9,4.5 C9,5.32842712 9.67157288,6 10.5,6 C11.1086541,6 11.6326383,5.6374853 11.8678172,5.11659143 C11.9537462,5.39587203 12,5.69253444 12,6 C12,7.65685425 10.6568542,9 9,9 C7.34314575,9 6,7.65685425 6,6 C6,4.34314575 7.34314575,3 9,3 C9.30746556,3 9.60412797,3.04625381 9.88340857,3.13218278 Z M9,12 C4.02943725,12 6.45069338e-17,6.84278254 0,6 C0,5.15721746 4.02943725,0 9,0 C13.9705627,0 18,5.21547792 18,6 C18,6.78452208 13.9705627,12 9,12 Z M9,10.5 C11.4852814,10.5 13.5,8.48528137 13.5,6 C13.5,3.51471863 11.4852814,1.5 9,1.5 C6.51471863,1.5 4.5,3.51471863 4.5,6 C4.5,8.48528137 6.51471863,10.5 9,10.5 Z" id="Combined-Shape" fill="#7B7F82"></path>
    </g>
</svg>