<?xml version="1.0" encoding="UTF-8"?>
<svg width="14px" height="14px" viewBox="0 0 14 14" version="1.1" xmlns="http://www.w3.org/2000/svg" xmlns:xlink="http://www.w3.org/1999/xlink">
    <!-- Generator: Sketch 52.6 (67491) - http://www.bohemiancoding.com/sketch -->
    <title>icon-地址管理</title>
    <desc>Created with Sketch.</desc>
    <g id="icon-地址管理" stroke="none" stroke-width="1" fill="none" fill-rule="evenodd">
        <path d="M0,6 L5,6 L5,8 L0,8 L1.17750927e-16,6 Z M7.56970244e-17,4 L0,0.4 C-2.705415e-17,0.1790861 0.1790861,3.18136981e-16 0.4,2.77555756e-16 L5,0 L5,4 L0,4 Z M0,10 L5,10 L5,14 L0.4,14 C0.1790861,14 3.04609906e-16,13.8209139 2.77555756e-16,13.6 L2.01858732e-16,10 Z M7,0 L13.6,0 C13.8209139,-4.05812251e-17 14,0.1790861 14,0.4 L14,13.6 C14,13.8209139 13.8209139,14 13.6,14 L7,14 L7,0 Z" id="Combined-Shape" fill="#F6C94A"></path>
    </g>
</svg>