<?xml version="1.0" encoding="UTF-8"?>
<svg width="17px" height="10px" viewBox="0 0 17 10" version="1.1" xmlns="http://www.w3.org/2000/svg" xmlns:xlink="http://www.w3.org/1999/xlink">
    <!-- Generator: Sketch 52.6 (67491) - http://www.bohemiancoding.com/sketch -->
    <title>Mobile Signal</title>
    <desc>Created with Sketch.</desc>
    <g id="钱包页面" stroke="none" stroke-width="1" fill="none" fill-rule="evenodd">
        <g id="00-00全局操作" transform="translate(-1067.000000, -875.000000)" fill="#34C69A">
            <g id="底-下导航" transform="translate(0.000000, 868.000000)">
                <path d="M1068,12.4285714 L1069,12.4285714 C1069.55228,12.4285714 1070,12.8762867 1070,13.4285714 L1070,15.2857143 C1070,15.837999 1069.55228,16.2857143 1069,16.2857143 L1068,16.2857143 C1067.44772,16.2857143 1067,15.837999 1067,15.2857143 L1067,13.4285714 C1067,12.8762867 1067.44772,12.4285714 1068,12.4285714 Z M1072.5,11.1428571 L1073.5,11.1428571 C1074.05228,11.1428571 1074.5,11.5905724 1074.5,12.1428571 L1074.5,15.2857143 C1074.5,15.837999 1074.05228,16.2857143 1073.5,16.2857143 L1072.5,16.2857143 C1071.94772,16.2857143 1071.5,15.837999 1071.5,15.2857143 L1071.5,12.1428571 C1071.5,11.5905724 1071.94772,11.1428571 1072.5,11.1428571 Z M1077,9.42857143 L1078,9.42857143 C1078.55228,9.42857143 1079,9.87628668 1079,10.4285714 L1079,15.2857143 C1079,15.837999 1078.55228,16.2857143 1078,16.2857143 L1077,16.2857143 C1076.44772,16.2857143 1076,15.837999 1076,15.2857143 L1076,10.4285714 C1076,9.87628668 1076.44772,9.42857143 1077,9.42857143 Z M1081.5,7.71428571 L1082.5,7.71428571 C1083.05228,7.71428571 1083.5,8.16200096 1083.5,8.71428571 L1083.5,15.2857143 C1083.5,15.837999 1083.05228,16.2857143 1082.5,16.2857143 L1081.5,16.2857143 C1080.94772,16.2857143 1080.5,15.837999 1080.5,15.2857143 L1080.5,8.71428571 C1080.5,8.16200096 1080.94772,7.71428571 1081.5,7.71428571 Z" id="Mobile-Signal"></path>
            </g>
        </g>
    </g>
</svg>