<?xml version="1.0" encoding="UTF-8"?>
<svg width="14px" height="14px" viewBox="0 0 14 14" version="1.1" xmlns="http://www.w3.org/2000/svg" xmlns:xlink="http://www.w3.org/1999/xlink">
    <!-- Generator: Sketch 52.6 (67491) - http://www.bohemiancoding.com/sketch -->
    <title>复制14PX</title>
    <desc>Created with Sketch.</desc>
    <g id="复制14PX" stroke="none" stroke-width="1" fill="none" fill-rule="evenodd">
        <path d="M14,11 L14,13.6 C14,13.8209139 13.8209139,14 13.6,14 L4.4,14 C4.1790861,14 4,13.8209139 4,13.6 L4,4.4 C4,4.1790861 4.1790861,4 4.4,4 L13.6,4 C13.8209139,4 14,4.1790861 14,4.4 L14,7 L14,7.6 C14,7.8209139 13.8209139,8 13.6,8 L12.4,8 C12.1790861,8 12,7.8209139 12,7.6 L12,7 L12,6 L6,6 L6,12 L12,12 L12,11 L12,10.4 C12,10.1790861 12.1790861,10 12.4,10 L13.6,10 C13.8209139,10 14,10.1790861 14,10.4 L14,11 Z M2,10 L0.4,10 C0.1790861,10 -5.83568513e-16,9.8209139 -6.10622664e-16,9.6 L0,0.4 C-2.705415e-17,0.1790861 0.1790861,-5.70041438e-16 0.4,-6.10622664e-16 L9.6,0 C9.8209139,-4.05812251e-17 10,0.1790861 10,0.4 L10,2 L10,2.6 C10,2.8209139 9.8209139,3 9.6,3 L8.4,3 C8.1790861,3 8,2.8209139 8,2.6 L8,2 L2,2 L2,8 L2.6,8 C2.8209139,8 3,8.1790861 3,8.4 L3,9.6 C3,9.8209139 2.8209139,10 2.6,10 L2,10 Z" id="复制" fill="#F6C94A"></path>
    </g>
</svg>